<svg width="180" height="39" viewBox="0 0 180 39" fill="none" xmlns="http://www.w3.org/2000/svg">
<g clip-path="url(#clip0_974_702)">
<path d="M120.75 0.462147V4.49358L124.438 0.449219H125.588L121.818 4.52805L125.778 8.84391H124.534L120.75 4.75214V8.84391H119.72V0.462147H120.75Z" fill="white"/>
<path d="M125.687 2.71094H126.741L128.639 7.10867L130.359 2.71094H131.368L127.94 10.9764H126.944L128.116 8.20972L125.687 2.71094Z" fill="white"/>
<path d="M133.677 8.84519H132.692V2.71292H133.677V8.84519ZM132.516 0.79094C132.516 0.619501 132.584 0.455085 132.707 0.33386C132.83 0.212635 132.996 0.144531 133.169 0.144531C133.343 0.144531 133.509 0.212635 133.632 0.33386C133.754 0.455085 133.823 0.619501 133.823 0.79094C133.823 0.962378 133.754 1.12679 133.632 1.24802C133.509 1.36925 133.343 1.43735 133.169 1.43735C132.996 1.43735 132.83 1.36925 132.707 1.24802C132.584 1.12679 132.516 0.962378 132.516 0.79094Z" fill="white"/>
<path d="M136.059 2.71094L137.896 7.85851L139.711 2.71094H140.731L138.502 8.8432H137.244L134.991 2.71094H136.059Z" fill="white"/>
<path d="M119.221 21.053H120.217C120.347 22.0485 120.761 22.8931 122.459 22.8931C123.549 22.8931 124.39 22.2618 124.39 21.3115C124.39 20.3613 123.954 19.9519 122.339 19.7041C120.561 19.424 119.506 18.8961 119.506 17.3965C119.506 16.1187 120.631 15.1211 122.232 15.1211C123.941 15.1211 124.972 15.9291 125.15 17.4288H124.224C124.024 16.3644 123.418 15.942 122.232 15.942C121.047 15.942 120.465 16.5044 120.465 17.3016C120.465 18.0989 120.774 18.5557 122.505 18.8099C124.39 19.09 125.388 19.6718 125.388 21.2469C125.388 22.654 124.141 23.7205 122.459 23.7205C120.195 23.7205 119.375 22.4902 119.221 21.0594" fill="white"/>
<path d="M126.738 20.6092V20.5165C126.738 18.6398 128.089 17.375 129.75 17.375C131.042 17.375 132.252 17.9611 132.441 19.5297H131.469C131.315 18.5558 130.598 18.1938 129.75 18.1938C128.623 18.1938 127.758 19.0837 127.758 20.5273V20.62C127.758 22.1283 128.588 22.9191 129.785 22.9191C130.656 22.9191 131.469 22.4149 131.563 21.4107H132.476C132.345 22.7359 131.256 23.7206 129.774 23.7206C128.041 23.7206 126.738 22.5247 126.738 20.6135" fill="white"/>
<path d="M135.021 14.5469V18.4512C135.305 17.878 135.982 17.3738 137.013 17.3738C138.292 17.3738 139.192 18.0655 139.192 19.8474V23.6117H138.207V19.7763C138.207 18.699 137.745 18.2163 136.749 18.2163C135.836 18.2163 135.019 18.7895 135.019 19.8948V23.6096H134.034V14.5469H135.021Z" fill="white"/>
<path d="M145.824 20.5984V20.5165C145.824 19.0966 145.031 18.183 143.798 18.183C142.564 18.183 141.769 19.0966 141.769 20.5036V20.5984C141.769 22.0055 142.529 22.9083 143.798 22.9083C145.066 22.9083 145.824 21.9796 145.824 20.5984ZM140.749 20.5984V20.5036C140.749 18.6614 142.041 17.375 143.8 17.375C145.558 17.375 146.851 18.6527 146.851 20.4928V20.5855C146.851 22.4386 145.543 23.7163 143.8 23.7163C142.057 23.7163 140.764 22.3912 140.764 20.5984" fill="white"/>
<path d="M153.131 20.5984V20.5165C153.131 19.0966 152.336 18.183 151.102 18.183C149.869 18.183 149.076 19.0966 149.076 20.5036V20.5984C149.076 22.0055 149.836 22.9083 151.102 22.9083C152.368 22.9083 153.131 21.9796 153.131 20.5984ZM148.056 20.5984V20.5036C148.056 18.6614 149.348 17.375 151.107 17.375C152.865 17.375 154.157 18.6527 154.157 20.4928V20.5855C154.157 22.4386 152.85 23.7163 151.107 23.7163C149.363 23.7163 148.071 22.3912 148.071 20.5984" fill="white"/>
<path d="M156.783 14.5469H155.787V23.6096H156.783V14.5469Z" fill="white"/>
<path d="M166.707 20.5984V20.5165C166.707 19.0966 165.914 18.183 164.68 18.183C163.447 18.183 162.651 19.0966 162.651 20.5036V20.5984C162.651 22.0055 163.412 22.9083 164.68 22.9083C165.949 22.9083 166.707 21.9796 166.707 20.5984ZM161.634 20.5984V20.5036C161.634 18.6614 162.926 17.375 164.685 17.375C166.443 17.375 167.736 18.6527 167.736 20.4928V20.5855C167.736 22.4386 166.428 23.7163 164.685 23.7163C162.941 23.7163 161.649 22.3912 161.649 20.5984" fill="white"/>
<path d="M168.553 18.2983V17.4774H169.442V16.4819C169.442 15.2279 170.059 14.5125 171.292 14.5125C171.542 14.5053 171.791 14.5456 172.026 14.631V15.4498C171.805 15.359 171.567 15.3149 171.327 15.3205C170.673 15.3205 170.425 15.7515 170.425 16.3763V17.4774H171.95V18.2983H170.425V23.6098H169.442V18.2983H168.553Z" fill="white"/>
<path d="M124.664 29.9883V30.8222H120.75V33.6707H123.904V34.5024H120.75V37.5383H124.876V38.3722H119.72V29.9883H124.664Z" fill="white"/>
<path d="M125.817 35.3709V35.2783C125.817 33.3994 127.168 32.1367 128.829 32.1367C130.121 32.1367 131.331 32.7206 131.52 34.2806H130.548C130.394 33.3067 129.677 32.9426 128.829 32.9426C127.702 32.9426 126.837 33.8346 126.837 35.2783V35.3709C126.837 36.8792 127.668 37.6678 128.864 37.6678C129.736 37.6678 130.548 37.1636 130.644 36.1595H131.555C131.424 37.4825 130.335 38.4694 128.853 38.4694C127.121 38.4694 125.817 37.2735 125.817 35.3623" fill="white"/>
<path d="M137.78 35.3601V35.2783C137.78 33.8605 136.985 32.9447 135.752 32.9447C134.518 32.9447 133.725 33.8605 133.725 35.2675V35.3601C133.725 36.7672 134.483 37.67 135.752 37.67C137.02 37.67 137.78 36.7456 137.78 35.3601ZM132.705 35.3601V35.2675C132.705 33.4274 133.997 32.1367 135.756 32.1367C137.515 32.1367 138.807 33.4145 138.807 35.2546V35.3494C138.807 37.2024 137.499 38.478 135.756 38.478C134.013 38.478 132.712 37.155 132.712 35.3601" fill="white"/>
<path d="M141.396 32.2401V33.2141C141.68 32.6409 142.355 32.1367 143.388 32.1367C144.667 32.1367 145.567 32.8262 145.567 34.6082V38.3724H144.582V34.5371C144.582 33.4597 144.12 32.9792 143.124 32.9792C142.211 32.9792 141.394 33.5545 141.394 34.6556V38.3724H140.409V32.2401H141.396Z" fill="white"/>
<path d="M152.195 35.3601V35.2783C152.195 33.8605 151.4 32.9447 150.169 32.9447C148.938 32.9447 148.14 33.8605 148.14 35.2675V35.3601C148.14 36.7672 148.898 37.67 150.169 37.67C151.439 37.67 152.195 36.7456 152.195 35.3601ZM147.12 35.3601V35.2675C147.12 33.4274 148.412 32.1367 150.171 32.1367C151.93 32.1367 153.222 33.4145 153.222 35.2546V35.3494C153.222 37.2024 151.914 38.478 150.171 38.478C148.428 38.478 147.135 37.155 147.135 35.3601" fill="white"/>
<path d="M155.811 32.2397V33.1813C155.989 32.8534 156.257 32.5814 156.585 32.397C156.912 32.2126 157.285 32.1229 157.661 32.1384C158.468 32.1384 159.154 32.4552 159.475 33.2847C159.889 32.5004 160.852 32.1384 161.597 32.1384C162.7 32.1384 163.685 32.7848 163.685 34.5754V38.3741H162.7V34.4957C162.7 33.4183 162.238 32.9723 161.392 32.9723C161.173 32.965 160.955 33.0025 160.752 33.0826C160.549 33.1628 160.364 33.2837 160.21 33.4377C160.057 33.5918 159.937 33.7756 159.858 33.9777C159.78 34.1798 159.745 34.3959 159.756 34.612V38.3655H158.771V34.4871C158.771 33.4097 158.311 32.9637 157.463 32.9637C157.244 32.9564 157.026 32.9939 156.823 33.074C156.62 33.1542 156.435 33.275 156.281 33.4291C156.128 33.5832 156.008 33.767 155.929 33.9691C155.851 34.1712 155.816 34.3873 155.827 34.6034V38.3569H154.844V32.2397H155.811Z" fill="white"/>
<path d="M166.642 38.3725H165.659V32.2403H166.642V38.3725ZM165.482 30.3183C165.482 30.1905 165.521 30.0655 165.592 29.9591C165.664 29.8529 165.767 29.7699 165.886 29.721C166.005 29.6721 166.137 29.6594 166.264 29.6844C166.39 29.7091 166.507 29.7708 166.598 29.8613C166.69 29.9515 166.752 30.0668 166.777 30.1922C166.803 30.3176 166.79 30.4475 166.74 30.5656C166.691 30.6837 166.607 30.7848 166.499 30.8556C166.392 30.9268 166.265 30.9647 166.136 30.9647C165.963 30.9647 165.796 30.8966 165.674 30.7753C165.551 30.6542 165.482 30.4898 165.482 30.3183Z" fill="white"/>
<path d="M168.232 35.3709V35.2783C168.232 33.3994 169.584 32.1367 171.244 32.1367C172.536 32.1367 173.746 32.7206 173.935 34.2806H172.963C172.809 33.3067 172.092 32.9426 171.244 32.9426C170.117 32.9426 169.252 33.8346 169.252 35.2783V35.3709C169.252 36.8792 170.083 37.6678 171.279 37.6678C172.151 37.6678 172.963 37.1636 173.057 36.1595H173.97C173.842 37.4825 172.75 38.4694 171.268 38.4694C169.54 38.478 168.232 37.2757 168.232 35.3709Z" fill="white"/>
<path d="M175.117 36.4853H176.078C176.161 37.2222 176.54 37.6682 177.536 37.6682C178.486 37.6682 178.887 37.3515 178.887 36.6965C178.887 36.0414 178.401 35.8346 177.442 35.6644C175.829 35.3842 175.283 34.9253 175.283 33.8566C175.283 32.734 176.398 32.1328 177.381 32.1328C178.486 32.1328 179.469 32.5637 179.623 33.9018H178.675C178.532 33.2339 178.166 32.9387 177.368 32.9387C176.658 32.9387 176.193 33.292 176.193 33.8199C176.193 34.3478 176.503 34.6042 177.64 34.7917C178.922 35.0503 179.82 35.2959 179.82 36.6103C179.82 37.735 179.059 38.4741 177.542 38.4741C176.06 38.4741 175.169 37.7458 175.11 36.481" fill="white"/>
<path d="M105.22 0.476562H104.232V38.4229H105.22V0.476562Z" fill="white"/>
<path d="M30.9574 0.76354C28.3293 2.35585 23.0361 6.93243 17.2634 12.4377C16.7295 12.0067 17.5533 12.6704 17.0194 12.2438C20.0484 6.99061 22.5785 1.10829 22.7528 0.476966H30.8746C30.9596 0.76785 30.8746 0.476966 30.9574 0.76354ZM15.0211 14.7863C16.5029 17.3353 27.7409 31.9721 33.9363 38.4232H23.9121C20.1835 33.3274 10.7542 21.1857 9.2201 19.8929L15.0211 14.7863ZM8.06295 0.476966C7.89952 4.54287 7.79056 11.4271 7.79056 19.2228C7.79056 25.2408 7.84504 34.7365 8.06295 38.4146H0C0.217918 36.1457 0.383535 28.3931 0.383535 19.824C0.383535 13.1573 0.274576 6.0016 0 0.472656L8.06295 0.476966Z" fill="white"/>
<path d="M57.787 5.76597C56.4941 3.36294 54.4404 1.44508 51.9402 0.305967C52.0579 -0.176685 51.8966 0.482652 52.0165 0L59.0988 0.476188L58.0899 5.72072L57.787 5.76597ZM44.9821 38.8858L36.5683 38.3127L37.7821 31.2582L38.0916 31.2259C39.2596 34.139 41.6785 37.1491 45.0649 38.582L44.9908 38.8858H44.9821ZM42.3235 6.92735C42.3235 11.0471 45.6141 12.9433 49.0681 14.5162C55.756 17.4983 60.7441 20.5881 60.7441 27.634C60.7441 33.4861 56.9175 38.1381 50.1664 38.8643C49.9659 37.9356 50.2993 39.4827 50.0988 38.554C53.762 37.4012 55.4814 34.9104 55.4814 31.59C55.4814 27.3086 52.4109 25.1949 47.3683 22.7557C41.1184 19.6077 36.2393 16.7937 36.2393 10.3964C36.2393 4.83729 40.2184 0.665801 47.3531 0.021547C47.5361 0.945912 47.2332 -0.599006 47.4141 0.325359C43.9274 1.38547 42.3257 3.83105 42.3257 6.92735" fill="white"/>
<path d="M89.6596 31.2848V38.4211H78.9032C78.8138 37.9191 78.9358 38.6107 78.8487 38.1087C82.7712 36.665 87.2973 33.6161 89.3741 31.1792L89.6596 31.2848ZM88.5068 0.472656V6.89365L88.2191 6.99492C86.1206 4.37266 82.1065 1.83442 78.5174 0.789397C78.6068 0.142987 78.4717 1.11476 78.561 0.474811L88.5068 0.472656ZM86.6981 15.6611V21.7847L86.4409 21.9118C83.815 20.0308 80.7751 19.2745 77.8419 18.6518C77.8419 18.2015 77.8419 18.7919 77.8419 18.3394C81.1107 17.7943 84.3925 16.7104 86.4496 15.5254L86.6915 15.6611H86.6981ZM75.1811 0.474811C75.0155 6.05763 74.9065 12.3989 74.9065 20.2075C74.9065 26.2234 75.0155 35.7213 75.1811 38.4211H67.1182C67.3361 36.1436 67.5017 28.391 67.5017 19.8261C67.5017 13.1595 67.3906 6.00376 67.1182 0.474811H75.1811Z" fill="white"/>
</g>
<defs>
<clipPath id="clip0_974_702">
<rect width="180" height="39" fill="white"/>
</clipPath>
</defs>
</svg>
